<svg width="90" height="90" viewBox="0 0 90 90" fill="none" xmlns="http://www.w3.org/2000/svg">
<g filter="url(#filter0_d_35_133)">
<circle cx="43" cy="43" r="40" fill="#6BCF5B"/>
</g>
<path d="M62.3846 39.312H60.6945C60.2886 34.9372 58.2489 30.8706 54.9754 27.9098C51.7019 24.949 47.4309 23.3076 43 23.3076C38.5691 23.3076 34.2981 24.949 31.0246 27.9098C27.7511 30.8706 25.7114 34.9372 25.3055 39.312H23.6154C23.187 39.312 22.7761 39.4807 22.4731 39.7811C22.1702 40.0815 22 40.4888 22 40.9136C22.0071 44.7226 23.0643 48.4572 25.0573 51.7135C27.0504 54.9698 29.9033 57.6239 33.3077 59.3888V60.1336C33.3077 60.9831 33.6481 61.7979 34.254 62.3986C34.8598 62.9994 35.6816 63.3369 36.5385 63.3369H49.4615C50.3184 63.3369 51.1402 62.9994 51.746 62.3986C52.3519 61.7979 52.6923 60.9831 52.6923 60.1336V59.3888C56.0967 57.6239 58.9496 54.9698 60.9427 51.7135C62.9357 48.4572 63.9929 44.7226 64 40.9136C64 40.4888 63.8298 40.0815 63.5269 39.7811C63.2239 39.4807 62.813 39.312 62.3846 39.312ZM52.1835 29.7481C52.5537 30.0484 52.9084 30.3654 53.2476 30.699C48.9474 32.1989 45.3938 35.2814 43.3231 39.308H37.3663C38.376 36.5019 40.2347 34.0733 42.6887 32.354C45.1427 30.6347 48.0721 29.7086 51.0769 29.702C51.4464 29.702 51.816 29.72 52.1835 29.7481ZM47.0627 39.312C49.0212 36.3987 51.9841 34.2938 55.3961 33.3918C56.5116 35.191 57.2116 37.2128 57.4456 39.312H47.0627ZM43 26.4987C44.2963 26.4995 45.5866 26.6726 46.8365 27.0132C43.7924 27.7619 41.0011 29.2931 38.744 31.4523C36.4869 33.6115 34.8437 36.3224 33.9801 39.312H28.5544C28.9551 35.79 30.649 32.5375 33.3132 30.1744C35.9773 27.8113 39.4254 26.5029 43 26.4987Z" fill="white"/>
<defs>
<filter id="filter0_d_35_133" x="0" y="0" width="90" height="90" filterUnits="userSpaceOnUse" color-interpolation-filters="sRGB">
<feFlood flood-opacity="0" result="BackgroundImageFix"/>
<feColorMatrix in="SourceAlpha" type="matrix" values="0 0 0 0 0 0 0 0 0 0 0 0 0 0 0 0 0 0 127 0" result="hardAlpha"/>
<feMorphology radius="1" operator="erode" in="SourceAlpha" result="effect1_dropShadow_35_133"/>
<feOffset dx="2" dy="2"/>
<feGaussianBlur stdDeviation="3"/>
<feComposite in2="hardAlpha" operator="out"/>
<feColorMatrix type="matrix" values="0 0 0 0 0 0 0 0 0 0 0 0 0 0 0 0 0 0 0.25 0"/>
<feBlend mode="normal" in2="BackgroundImageFix" result="effect1_dropShadow_35_133"/>
<feBlend mode="normal" in="SourceGraphic" in2="effect1_dropShadow_35_133" result="shape"/>
</filter>
</defs>
</svg>
