<svg width="90" height="90" viewBox="0 0 90 90" fill="none" xmlns="http://www.w3.org/2000/svg">
<g filter="url(#filter0_d_35_127)">
<circle cx="43" cy="43" r="40" fill="#F07953"/>
</g>
<g clip-path="url(#clip0_35_127)">
<path d="M21.4125 27.5373C21.4125 26.2145 21.938 24.9459 22.8733 24.0106C23.8086 23.0753 25.0772 22.5498 26.4 22.5498C27.7228 22.5498 28.9914 23.0753 29.9267 24.0106C30.862 24.9459 31.3875 26.2145 31.3875 27.5373C31.3875 28.8601 30.862 30.1287 29.9267 31.064C28.9914 31.9993 27.7228 32.5248 26.4 32.5248C25.0772 32.5248 23.8086 31.9993 22.8733 31.064C21.938 30.1287 21.4125 28.8601 21.4125 27.5373ZM20.7 41.5825C19.8094 42.58 19.275 43.907 19.275 45.3498C19.275 46.7926 19.8094 48.1196 20.7 49.1171V41.5825ZM33.5606 37.1917C30.9155 39.534 29.25 42.9629 29.25 46.7748C29.25 49.8296 30.3187 52.6351 32.1 54.835V56.7498C32.1 58.3262 30.8264 59.5998 29.25 59.5998H23.55C21.9736 59.5998 20.7 58.3262 20.7 56.7498V54.3629C17.3334 52.7598 15 49.3309 15 45.3498C15 39.8368 19.462 35.3748 24.975 35.3748H27.825C29.9625 35.3748 31.9397 36.0428 33.5606 37.1828V37.1917ZM54.9 56.7498V54.835C56.6812 52.6351 57.75 49.8296 57.75 46.7748C57.75 42.9629 56.0845 39.534 53.4394 37.1828C55.0603 36.0428 57.0375 35.3748 59.175 35.3748H62.025C67.538 35.3748 72 39.8368 72 45.3498C72 49.3309 69.6666 52.7598 66.3 54.3629V56.7498C66.3 58.3262 65.0264 59.5998 63.45 59.5998H57.75C56.1736 59.5998 54.9 58.3262 54.9 56.7498ZM55.6125 27.5373C55.6125 26.2145 56.138 24.9459 57.0733 24.0106C58.0086 23.0753 59.2772 22.5498 60.6 22.5498C61.9228 22.5498 63.1914 23.0753 64.1267 24.0106C65.062 24.9459 65.5875 26.2145 65.5875 27.5373C65.5875 28.8601 65.062 30.1287 64.1267 31.064C63.1914 31.9993 61.9228 32.5248 60.6 32.5248C59.2772 32.5248 58.0086 31.9993 57.0733 31.064C56.138 30.1287 55.6125 28.8601 55.6125 27.5373ZM66.3 41.5825V49.1261C67.1906 48.1196 67.725 46.8015 67.725 45.3587C67.725 43.9159 67.1906 42.5889 66.3 41.5914V41.5825ZM43.5 22.5498C45.0117 22.5498 46.4615 23.1503 47.5305 24.2193C48.5995 25.2883 49.2 26.7381 49.2 28.2498C49.2 29.7615 48.5995 31.2114 47.5305 32.2803C46.4615 33.3493 45.0117 33.9498 43.5 33.9498C41.9883 33.9498 40.5384 33.3493 39.4695 32.2803C38.4005 31.2114 37.8 29.7615 37.8 28.2498C37.8 26.7381 38.4005 25.2883 39.4695 24.2193C40.5384 23.1503 41.9883 22.5498 43.5 22.5498ZM36.375 46.7748C36.375 48.2176 36.9094 49.5357 37.8 50.5421V43.0075C36.9094 44.0139 36.375 45.332 36.375 46.7748ZM49.2 43.0075V50.5511C50.0906 49.5446 50.625 48.2265 50.625 46.7837C50.625 45.3409 50.0906 44.0139 49.2 43.0164V43.0075ZM54.9 46.7748C54.9 50.7559 52.5666 54.1848 49.2 55.7879V59.5998C49.2 61.1762 47.9264 62.4498 46.35 62.4498H40.65C39.0736 62.4498 37.8 61.1762 37.8 59.5998V55.7879C34.4334 54.1848 32.1 50.7559 32.1 46.7748C32.1 41.2618 36.562 36.7998 42.075 36.7998H44.925C50.438 36.7998 54.9 41.2618 54.9 46.7748Z" fill="white"/>
</g>
<defs>
<filter id="filter0_d_35_127" x="0" y="0" width="90" height="90" filterUnits="userSpaceOnUse" color-interpolation-filters="sRGB">
<feFlood flood-opacity="0" result="BackgroundImageFix"/>
<feColorMatrix in="SourceAlpha" type="matrix" values="0 0 0 0 0 0 0 0 0 0 0 0 0 0 0 0 0 0 127 0" result="hardAlpha"/>
<feMorphology radius="1" operator="erode" in="SourceAlpha" result="effect1_dropShadow_35_127"/>
<feOffset dx="2" dy="2"/>
<feGaussianBlur stdDeviation="3"/>
<feComposite in2="hardAlpha" operator="out"/>
<feColorMatrix type="matrix" values="0 0 0 0 0 0 0 0 0 0 0 0 0 0 0 0 0 0 0.25 0"/>
<feBlend mode="normal" in2="BackgroundImageFix" result="effect1_dropShadow_35_127"/>
<feBlend mode="normal" in="SourceGraphic" in2="effect1_dropShadow_35_127" result="shape"/>
</filter>
<clipPath id="clip0_35_127">
<rect width="57" height="57" fill="white" transform="translate(15 14)"/>
</clipPath>
</defs>
</svg>
